<?xml version="1.0" standalone="no"?>
<!DOCTYPE svg PUBLIC "-//W3C//DTD SVG 20010904//EN"
 "http://www.w3.org/TR/2001/REC-SVG-20010904/DTD/svg10.dtd">
<svg version="1.0" xmlns="http://www.w3.org/2000/svg"
 width="300.000000pt" height="300.000000pt" viewBox="0 0 300.000000 300.000000"
 preserveAspectRatio="xMidYMid meet">
<metadata>
Created by potrace 1.14, written by Peter Selinger 2001-2017
</metadata>
<g transform="translate(0.000000,300.000000) scale(0.100000,-0.100000)"
fill="#000000" stroke="none">
<path d="M251 2390 c-16 -47 -72 -210 -125 -364 -53 -153 -96 -282 -96 -286 0
-4 25 -7 55 -7 39 1 56 5 61 17 3 8 53 152 110 320 58 168 111 322 119 343 24
60 21 63 -40 63 l-55 0 -29 -86z"/>
<path d="M2845 2436 c-25 -68 -136 -390 -140 -406 -2 -8 -24 -73 -49 -145 -25
-71 -46 -135 -46 -141 0 -6 21 -10 55 -10 l55 1 29 85 c16 47 72 211 125 364
53 154 96 282 96 286 0 3 -25 6 -55 7 l-54 1 -16 -42z"/>
<path d="M553 2432 l-83 -3 0 -49 0 -50 60 0 60 0 0 -225 0 -225 -37 1 c-84 3
-83 4 -83 -51 l0 -50 188 2 187 3 0 43 c1 51 -9 58 -77 56 -40 -1 -48 2 -49
18 0 10 0 101 0 203 0 102 0 194 0 205 1 16 9 19 63 22 l63 3 0 48 1 47 -70 1
c-39 0 -87 1 -106 2 -19 1 -72 1 -117 -1z"/>
<path d="M1055 2430 l-59 -5 -1 -323 0 -322 219 2 219 3 2 48 c1 32 -3 47 -12
48 -7 0 -77 2 -155 2 l-143 2 0 90 0 90 115 2 c63 0 123 2 133 2 14 1 17 10
17 49 l0 49 -112 -1 c-168 -2 -157 -8 -156 85 l0 79 156 2 156 3 1 48 c1 36
-3 47 -15 47 -8 0 -80 1 -160 3 -80 1 -172 0 -205 -3z"/>
<path d="M1630 2430 l-85 -5 0 -320 0 -320 218 -3 c119 -1 217 1 218 5 5 44 3
86 -5 91 -5 3 -75 6 -155 6 l-146 1 -3 91 -3 92 126 -2 c70 -1 130 1 135 4 5
3 8 26 7 50 l-2 45 -125 2 c-69 0 -128 2 -132 2 -5 1 -8 37 -8 81 l0 80 154 0
154 0 4 46 c2 26 -1 48 -7 50 -17 7 -254 9 -345 4z"/>
<path d="M2112 2429 c-16 -6 -17 -33 -18 -328 l-1 -321 219 0 c167 0 218 3
219 13 0 6 2 25 3 41 1 16 -3 34 -9 40 -8 7 -62 11 -159 10 l-147 -2 3 92 3
91 110 1 c171 2 155 -3 152 52 l-2 47 -130 0 -130 0 -3 83 -3 82 156 0 155 0
0 50 0 50 -77 1 c-43 0 -133 1 -201 2 -67 1 -130 -1 -140 -4z"/>
<path d="M849 1203 c-4 -76 -3 -673 1 -674 3 -1 29 -2 58 -3 51 -2 52 -1 52
26 l0 27 36 -24 c20 -14 46 -26 58 -27 99 -7 158 23 197 100 21 41 24 61 23
147 0 89 -3 106 -27 150 -29 55 -56 78 -108 93 -46 12 -95 6 -136 -18 l-33
-19 0 119 0 120 -60 0 c-50 0 -60 -3 -61 -17z m258 -294 c12 -7 28 -28 34 -48
16 -46 15 -142 -1 -181 -13 -31 -52 -57 -80 -54 -8 1 -23 2 -32 3 -10 0 -26
11 -38 23 -17 19 -20 35 -20 123 0 93 2 103 23 122 36 34 67 37 114 12z"/>
<path d="M1738 1093 c-2 -71 -2 -225 0 -344 l3 -216 59 -1 60 -1 1 32 c1 18 1
51 1 74 0 32 6 47 28 68 l28 26 69 -98 69 -98 72 -1 c40 -1 72 2 72 6 0 4 -28
45 -63 91 -34 46 -79 107 -99 134 l-36 50 45 50 c153 170 146 152 58 151 -71
-1 -77 -3 -101 -31 -14 -17 -52 -58 -84 -92 l-59 -63 2 195 2 195 -62 0 -62 0
-3 -127z"/>
<path d="M473 1019 c-85 -16 -139 -64 -148 -132 -10 -74 66 -134 201 -163 38
-8 77 -22 88 -33 18 -19 18 -21 2 -45 -9 -14 -24 -27 -34 -27 -9 -1 -28 -3
-41 -4 -47 -5 -93 15 -104 44 -9 25 -14 27 -68 28 -53 0 -59 -2 -59 -20 0 -36
43 -87 95 -114 104 -54 268 -26 322 55 28 43 25 103 -8 139 -27 29 -88 59
-139 68 -83 15 -115 25 -127 41 -17 23 -16 28 5 52 35 42 147 29 159 -18 5
-17 14 -20 69 -20 l64 0 -6 28 c-24 94 -138 145 -271 121z"/>
<path d="M2407 1019 c-79 -18 -131 -63 -138 -119 -4 -24 -2 -25 52 -26 52 -2
59 1 78 27 17 23 29 29 60 29 51 0 91 -31 91 -71 0 -28 -1 -29 -52 -30 -137
-2 -203 -31 -233 -102 -27 -65 3 -150 64 -182 51 -26 127 -25 179 1 26 13 48
24 48 24 1 0 4 -9 7 -19 4 -16 14 -19 67 -19 61 1 61 1 54 27 -4 14 -8 94 -10
177 -1 84 -5 163 -9 175 -10 35 -64 87 -99 98 -49 15 -118 20 -159 10z m143
-306 c0 -52 -23 -79 -76 -89 -51 -9 -88 11 -92 52 -5 50 43 79 133 79 34 0 35
-1 35 -42z"/>
<path d="M1463 680 c-33 -14 -52 -58 -41 -98 17 -62 107 -76 148 -24 26 33 25
65 -2 97 -25 28 -70 39 -105 25z"/>
</g>
</svg>
