<?xml version="1.0" encoding="UTF-8"?><svg id="Ebene_1" xmlns="http://www.w3.org/2000/svg" viewBox="0 0 184.411 35.667"><defs><style>.cls-1{fill:#000;stroke-width:0px;}</style></defs><path class="cls-1" d="M42.38,6.53h10.173c6.683.033,11.671,3.989,11.671,11.337,0,7.281-4.988,11.271-11.671,11.271h-10.173V6.53ZM47.965,11.384v12.9h4.323c3.656,0,6.149-2.294,6.149-6.417,0-4.189-2.493-6.483-6.149-6.483h-4.323Z"/><path class="cls-1" d="M83.064,27.243c-2.122,1.6-4.724,2.432-7.381,2.361-6.55,0-9.541-3.957-9.541-9.11-.198-4.888,3.603-9.012,8.492-9.21.25-.01.5-.01.75.001,5.286,0,7.814,3.258,7.814,7.247.003,1.119-.119,2.234-.365,3.325h-11.14c.332,2.028,1.763,3.325,4.323,3.325,1.787-.067,3.517-.644,4.986-1.663l2.062,3.724ZM78.375,17.933c0-1.396-.964-2.394-3.024-2.394-1.727-.121-3.266,1.086-3.558,2.793h6.55c.027-.131.038-.265.033-.399Z"/><path class="cls-1" d="M107.266,11.75h5.585v3.024c.997-1.994,2.46-3.324,4.721-3.324,1.224-.002,2.423.344,3.457.997l-1.695,4.821c-.894-.426-1.87-.653-2.86-.665-1.714-.005-3.211,1.161-3.624,2.825v9.708h-5.585V11.75Z"/><path class="cls-1" d="M130.298,11.284c4.985-.209,9.195,3.663,9.404,8.647.008.187.01.374.006.561,0,5.22-3.956,9.11-9.41,9.11-5.059.1-9.241-3.92-9.341-8.978-.1-5.059,3.92-9.241,8.978-9.341.121-.002.242-.002.362,0ZM130.298,24.55c2.259.075,4.15-1.695,4.225-3.954.075-2.259-1.695-4.15-3.954-4.225-2.259-.075-4.15,1.695-4.225,3.954-.002.056-.003.112-.002.168-.075,2.165,1.62,3.98,3.784,4.054.057.002.114.003.172.002h0Z"/><path class="cls-1" d="M147.329,11.75v2.027c1.401-1.539,3.404-2.389,5.485-2.327,4.721,0,6.65,3.425,6.65,7.68v10.007h-5.585v-9.076c0-2.227-.964-3.457-3.059-3.457-1.478.005-2.827.84-3.49,2.161v10.373h-5.585V11.75h5.585Z"/><path class="cls-1" d="M178.422,27.243c-2.122,1.6-4.724,2.432-7.381,2.361-6.55,0-9.541-3.957-9.541-9.11-.198-4.888,3.603-9.012,8.492-9.21.25-.01.5-.01.75.001,5.286,0,7.814,3.258,7.814,7.247.003,1.119-.119,2.234-.365,3.325h-11.14c.332,2.028,1.763,3.325,4.323,3.325,1.787-.067,3.517-.644,4.986-1.663l2.062,3.724ZM173.734,17.933c0-1.396-.964-2.394-3.024-2.394-1.727-.121-3.266,1.086-3.558,2.793h6.55c.027-.131.038-.265.033-.399h0Z"/><path class="cls-1" d="M98.247,7.258v6.154c-1.33-1.279-3.109-1.983-4.953-1.962-4.754,0-8.013,3.723-8.013,8.977s3.258,9.043,8.013,9.043c1.871.06,3.677-.691,4.953-2.061v1.729h5.585V5.761l-5.585,1.497ZM98.247,23.352c-.931.788-2.104,1.234-3.324,1.264-2.395,0-3.958-1.629-3.958-4.189-.191-2.08,1.341-3.921,3.421-4.112.178-.016.358-.02.537-.011,1.227.025,2.404.485,3.324,1.297v5.751Z"/><polygon class="cls-1" points="35.782 35.724 29.162 35.724 29.162 33.764 33.82 33.764 33.82 29.105 35.782 29.105 35.782 35.724"/><polygon class="cls-1" points="6.619 35.724 0 35.724 0 29.105 1.961 29.105 1.961 33.764 6.619 33.764 6.619 35.724"/><polygon class="cls-1" points="1.961 6.563 0 6.563 0 -.056 6.619 -.056 6.619 1.904 1.961 1.904 1.961 6.563"/><polygon class="cls-1" points="35.782 6.563 33.82 6.563 33.82 1.904 29.162 1.904 29.162 -.056 35.782 -.056 35.782 6.563"/><polygon class="cls-1" points="29.132 29.075 24.147 29.075 24.147 27.441 27.497 27.441 27.497 24.091 29.132 24.091 29.132 29.075"/><polygon class="cls-1" points="11.634 29.075 6.65 29.075 6.65 24.091 8.284 24.091 8.284 27.441 11.634 27.441 11.634 29.075"/><polygon class="cls-1" points="8.284 11.578 6.65 11.578 6.65 6.593 11.634 6.593 11.634 8.228 8.284 8.228 8.284 11.578"/><polygon class="cls-1" points="29.132 11.578 27.497 11.578 27.497 8.228 24.147 8.228 24.147 6.593 29.132 6.593 29.132 11.578"/><polygon class="cls-1" points="22.945 22.889 19.595 22.889 19.595 21.58 21.638 21.58 21.638 19.539 22.945 19.539 22.945 22.889"/><polygon class="cls-1" points="16.186 22.889 12.836 22.889 12.836 19.539 14.143 19.539 14.143 21.58 16.186 21.58 16.186 22.889"/><polygon class="cls-1" points="14.143 16.13 12.836 16.13 12.836 12.778 16.186 12.778 16.186 14.087 14.143 14.087 14.143 16.13"/><polygon class="cls-1" points="22.945 16.13 21.638 16.13 21.638 14.087 19.595 14.087 19.595 12.778 22.945 12.778 22.945 16.13"/><path class="cls-1" d="M181.19,5.875c1.773-.005,3.215,1.428,3.22,3.201s-1.428,3.215-3.201,3.22c-1.773.005-3.215-1.428-3.22-3.201h0c-.045-1.734,1.324-3.175,3.058-3.22.048-.001.096-.001.143,0ZM181.19,11.765c1.477.018,2.689-1.165,2.706-2.642.018-1.477-1.165-2.689-2.642-2.706-1.477-.018-2.689,1.165-2.706,2.642,0,.012,0,.025,0,.037-.041,1.433,1.088,2.628,2.522,2.669.04.001.08.001.12,0ZM179.933,7.536h1.44c.565-.065,1.076.34,1.141.904.005.047.008.094.007.141,0,.463-.326.863-.78.954l.881.982v.137h-.77l-.909-1.083h-.294v1.083h-.715v-3.119ZM180.649,8.132v.917h.698c.243.015.452-.17.467-.413,0-.015.001-.031,0-.046.016-.237-.163-.443-.4-.459-.022-.002-.045-.001-.067,0h-.698Z"/></svg>